<svg xmlns="http://www.w3.org/2000/svg" width="24" height="24" viewBox="-1 -1 28 28">
  <circle cx="12" cy="12" r="12" fill="none" stroke="#FFFFFF" stroke-width="1"/>
  <g transform="scale(0.75) translate(4, 4)">
    <path fill="#FFFFFF" d="M12 7.377c-2.546 0-4.623 2.077-4.623 4.623s2.077 4.623 4.623 4.623 4.623-2.077 4.623-4.623-2.077-4.623-4.623-4.623zm0 7.596c-1.642 0-2.973-1.331-2.973-2.973S10.358 9.027 12 9.027s2.973 1.331 2.973 2.973-1.331 2.973-2.973 2.973zm6.406-10.97a1.326 1.326 0 1 1 0 2.653 1.326 1.326 0 0 1 0-2.653zM12 2.163c-2.68 0-3.022.01-4.077.058-1.054.048-1.77.214-2.387.462-.65.258-1.2.6-1.747 1.147-.548.547-.889 1.097-1.147 1.747-.248.616-.414 1.333-.462 2.387-.048 1.055-.058 1.398-.058 4.078s.01 3.022.058 4.078c.048 1.054.214 1.77.462 2.387.258.65.6 1.2 1.147 1.747.547.548 1.097.889 1.747 1.147.616.248 1.333.414 2.387.462 1.055.048 1.397.058 4.078.058s3.022-.01 4.078-.058c1.054-.048 1.77-.214 2.387-.462.65-.258 1.2-.6 1.747-1.147.548-.547.889-1.097 1.147-1.747.248-.616.414-1.333.462-2.387.048-1.055.058-1.398.058-4.078s-.01-3.022-.058-4.078c-.048-1.054-.214-1.77-.462-2.387-.258-.65-.6-1.2-1.147-1.747-.547-.548-1.097-.889-1.747-1.147-.616-.248-1.333-.414-2.387-.462-1.055-.048-1.398-.058-4.078-.058zm0 1.987c2.626 0 2.946.01 3.977.057.96.043 1.485.205 1.832.342.462.18.793.395 1.142.744.348.348.564.679.744 1.142.137.347.299.872.342 1.832.048 1.031.057 1.351.057 3.977s-.01 2.946-.057 3.977c-.043.96-.205 1.485-.342 1.832-.18.462-.395.793-.744 1.142-.348.348-.679.564-1.142.744-.347.137-.872.299-1.832.342-1.031.048-1.351.057-3.977.057s-2.946-.01-3.977-.057c-.96-.043-1.485-.205-1.832-.342a3.924 3.924 0 0 1-1.142-.744 3.924 3.924 0 0 1-.744-1.142c-.137-.347-.299-.872-.342-1.832-.048-1.031-.057-1.351-.057-3.977s.01-2.946.057-3.977c.043-.96.205-1.485.342-1.832.18-.462.395-.793.744-1.142.348-.348.679-.564 1.142-.744.347-.137.872-.299 1.832-.342 1.031-.048 1.351-.057 3.977-.057z"/>
  </g>
</svg>
