
<svg xmlns="http://www.w3.org/2000/svg" width="24" height="24" viewBox="-1 -1 28 28">
  <circle cx="12" cy="12" r="12" fill="none" stroke="#FFFFFF" stroke-width="1"/>
    <g transform="scale(0.75) translate(4, 4)">
  <path fill="#FFFFFF" d="M19.633 7.596c.01.144.01.288.01.434 0 4.419-3.362 9.515-9.515 9.515-1.888 0-3.645-.552-5.124-1.503.261.031.522.048.794.048 1.566 0 3.008-.532 4.157-1.426a3.358 3.358 0 0 1-3.137-2.327c.212.033.425.056.647.056.314 0 .621-.041.913-.12a3.353 3.353 0 0 1-2.688-3.29v-.041c.451.25.967.4 1.516.418a3.351 3.351 0 0 1-1.5-2.791c0-.616.166-1.193.457-1.688a9.515 9.515 0 0 0 6.905 3.501 3.79 3.79 0 0 1-.083-.769 3.354 3.354 0 0 1 3.353-3.353c.965 0 1.837.408 2.45 1.062a6.643 6.643 0 0 0 2.126-.814 3.335 3.335 0 0 1-1.473 1.852 6.66 6.66 0 0 0 1.917-.525 6.841 6.841 0 0 1-1.676 1.732z"/>
</g>
</svg>
